<svg xmlns="http://www.w3.org/2000/svg" width="16" height="16" viewBox="0 0 512 512">
<g transform="translate(0.000000,512.000000) scale(0.105350,-0.100000)"
fill="#000000" stroke="none">
<path d="M0 4070 c0 -693 3 -1050 10 -1050 6 0 10 4 10 10 0 6 35 7 93 3 111
-7 189 11 241 57 51 45 135 193 167 295 l28 89 -48 71 c-27 39 -61 102 -76
141 -15 38 -53 125 -85 194 -32 69 -60 145 -63 170 -3 25 -15 65 -25 90 -11
25 -23 61 -26 80 -3 19 -12 64 -20 100 -8 36 -19 97 -25 135 -5 39 -15 97 -21
131 -12 56 -11 67 14 153 45 156 88 233 151 263 17 9 73 18 127 22 95 6 97 6
259 -44 89 -27 171 -50 181 -50 36 0 134 -39 223 -90 50 -28 115 -58 145 -66
70 -21 105 -39 155 -79 22 -17 58 -38 80 -45 22 -6 64 -25 92 -41 62 -34 85
-36 145 -9 50 22 148 44 248 56 l65 8 -82 12 c-120 18 -173 61 -173 140 0 63
33 98 110 114 64 14 166 8 183 -9 6 -6 21 -11 33 -11 43 0 125 -34 164 -68
l41 -34 35 27 c45 34 247 105 299 104 22 0 76 -8 120 -18 76 -16 81 -19 98
-54 18 -35 18 -40 2 -86 -9 -27 -23 -55 -32 -63 -14 -11 -6 -15 58 -25 41 -7
127 -20 193 -28 70 -9 137 -24 165 -36 76 -35 140 -57 143 -50 2 3 32 22 68
40 36 19 97 56 136 82 39 26 97 56 130 67 84 28 113 42 164 78 89 63 175 100
405 174 66 21 147 48 180 60 33 12 78 25 100 30 22 4 -1001 8 -2272 9 l-2313
1 0 -1050z"/>
<path d="M4687 5105 c60 -26 83 -113 87 -335 2 -89 1 -98 -34 -220 -12 -41
-30 -108 -41 -149 -11 -40 -42 -117 -68 -170 -27 -53 -53 -113 -59 -134 -14
-50 -169 -326 -204 -364 -19 -21 -20 -29 -13 -105 5 -46 9 -142 9 -213 1 -110
4 -135 20 -159 17 -26 22 -28 65 -23 106 14 134 24 164 61 23 29 32 34 47 26
17 -9 17 -14 -7 -112 -58 -234 -93 -289 -194 -309 l-60 -12 7 -71 c8 -94 50
-305 72 -364 19 -52 73 -92 125 -92 40 0 147 52 182 88 16 18 38 32 47 32 15
0 18 -9 18 -55 0 -123 -47 -215 -146 -283 -35 -24 -47 -27 -111 -24 l-71 2
-12 -37 c-7 -21 -24 -53 -37 -71 -21 -28 -23 -37 -14 -60 5 -15 15 -61 22
-103 16 -109 -3 -156 -94 -221 -11 -8 -27 -49 -41 -103 -13 -50 -31 -112 -41
-140 l-18 -50 26 -38 c61 -90 68 -165 31 -329 -15 -65 -22 -77 -69 -123 -70
-69 -220 -146 -289 -150 -64 -3 -132 -30 -139 -56 -3 -10 -13 -19 -22 -19 -38
0 -73 -32 -79 -72 -16 -96 -101 -300 -154 -368 -73 -93 -148 -146 -236 -165
-53 -12 44 -14 722 -14 l782 -1 0 2560 0 2560 -102 0 c-97 -1 -101 -2 -71 -15z"/>
<path d="M3540 3495 c-36 -8 -96 -19 -135 -25 -76 -13 -185 -57 -185 -75 0 -6
-12 -18 -27 -28 -46 -28 -128 -109 -156 -154 -14 -23 -31 -44 -37 -48 -18 -11
-11 -25 13 -25 15 0 30 13 47 41 14 23 45 58 70 80 25 21 56 50 70 63 36 35
176 106 209 106 16 0 44 6 62 14 27 11 67 12 184 7 147 -7 151 -8 205 -41 75
-46 168 -127 195 -170 21 -34 85 -184 85 -200 0 -5 -9 -6 -20 -3 -19 5 -20 1
-15 -203 3 -115 6 -222 6 -237 2 -38 -71 -183 -121 -240 -34 -38 -48 -47 -75
-47 -27 0 -35 -5 -43 -28 -9 -26 -84 -82 -110 -82 -5 0 -7 24 -5 53 4 48 3 51
-11 33 -9 -11 -16 -37 -16 -57 0 -37 -1 -38 -57 -54 -31 -9 -65 -14 -76 -11
-12 3 -31 -7 -55 -29 -36 -34 -37 -34 -12 -36 14 -1 30 0 35 1 6 1 24 4 40 7
17 2 43 8 59 13 40 14 56 12 56 -3 0 -11 39 -37 55 -37 2 0 24 28 48 63 45 63
104 117 128 117 17 0 108 -57 141 -88 26 -24 28 -24 54 -7 l27 17 -8 137 c-11
217 -10 233 35 446 21 100 14 161 -35 305 -35 105 -58 154 -103 219 -60 89
-67 94 -257 176 -94 40 -170 49 -265 30z m626 -666 c4 -64 3 -113 -3 -123 -10
-18 -24 150 -22 259 l1 50 9 -40 c4 -22 11 -88 15 -146z m-33 -597 c5 -41 -5
-48 -29 -21 -11 12 -39 33 -64 47 -25 14 -47 27 -49 29 -2 2 9 20 26 41 16 20
36 48 43 62 7 14 22 36 34 48 l21 24 7 -99 c4 -54 9 -113 11 -131z"/>
<path d="M1995 3477 c-92 -10 -146 -31 -224 -91 -31 -23 -74 -53 -96 -66 -62
-37 -126 -91 -157 -134 -35 -49 -36 -65 -2 -58 17 3 48 32 90 83 75 90 86 98
254 174 112 52 129 57 172 52 26 -4 48 -2 48 3 0 5 11 5 28 0 15 -6 57 -14 93
-19 105 -14 201 -62 304 -152 50 -43 99 -89 109 -103 22 -30 49 -35 39 -8 -14
37 -85 132 -116 155 -70 51 -235 126 -313 143 -133 28 -146 29 -229 21z"/>
<path d="M2071 3211 c-14 -31 -39 -78 -55 -104 l-31 -48 -50 4 c-27 2 -87 10
-132 18 -70 11 -95 11 -155 -1 -40 -7 -95 -15 -121 -18 -53 -4 -58 -11 -120
-152 -38 -87 -48 -230 -22 -311 31 -96 81 -174 153 -238 70 -63 162 -127 162
-112 0 4 -11 13 -24 19 -25 11 -45 69 -32 90 3 5 -12 23 -33 40 -44 35 -91
112 -114 187 -22 69 -49 222 -45 254 2 20 -1 26 -14 25 -10 -1 -18 4 -18 12 0
10 13 14 43 14 23 0 76 9 117 20 64 18 85 19 145 10 39 -5 93 -10 120 -11 216
-4 656 0 757 7 l77 6 17 -34 c16 -34 16 -36 -9 -74 -14 -21 -40 -88 -58 -149
-46 -157 -74 -208 -164 -294 -75 -71 -76 -73 -65 -102 12 -27 13 -28 39 -14
52 26 215 199 245 259 74 149 74 240 -3 481 l-28 90 -71 -3 c-38 -2 -94 1
-124 7 -36 8 -64 8 -88 1 -19 -5 -74 -13 -122 -16 l-88 -6 0 36 c0 20 -11 58
-25 84 -14 26 -25 52 -25 59 0 31 -17 16 -39 -36z m53 -238 c-1 -7 -2 -18 -2
-23 -2 -12 -245 -10 -257 2 -4 3 -2 15 3 25 9 16 21 18 133 13 91 -4 124 -8
123 -17z"/>
<path d="M3196 3217 c-44 -86 -75 -132 -87 -129 -18 5 -17 5 -61 3 -35 -1 -38
-3 -88 -97 -30 -55 -55 -116 -59 -143 -11 -77 22 -289 50 -316 6 -6 6 2 -1 20
-14 37 -14 152 0 222 6 28 10 58 9 65 -1 7 -1 25 0 39 l1 26 133 8 c72 4 161
6 197 4 36 -2 103 -3 150 -1 204 5 475 1 484 -8 21 -21 26 -7 26 80 l0 90
-122 -2 c-68 -1 -159 1 -203 4 -136 10 -258 11 -302 3 -40 -7 -43 -6 -62 26
-12 19 -24 55 -27 82 -8 60 -17 66 -38 24z m454 -232 c0 -23 -4 -25 -47 -25
-27 0 -94 -3 -149 -7 -103 -6 -120 -1 -108 31 6 16 40 19 227 24 76 2 77 2 77
-23z"/>
<path d="M2690 3096 c0 -6 14 -34 31 -61 44 -70 51 -90 58 -185 6 -83 7 -85
33 -88 23 -3 28 1 33 25 3 15 14 57 25 93 11 36 28 95 38 131 l19 66 -86 12
c-146 20 -151 21 -151 7z"/>
<path d="M1370 3043 c0 -16 -3 -46 -6 -68 l-6 -40 31 54 c17 29 36 60 42 67 9
11 5 14 -25 14 -33 0 -36 -3 -36 -27z"/>
<path d="M920 2976 c-12 -38 -14 -243 -3 -326 8 -56 5 -104 -16 -224 -6 -37
-9 -77 -6 -88 4 -10 7 -120 7 -243 0 -190 2 -226 15 -237 13 -11 21 -7 49 27
19 22 59 91 90 153 31 61 57 112 58 112 2 0 18 -22 36 -49 22 -31 62 -68 112
-102 44 -30 85 -58 93 -63 9 -7 19 -5 29 3 20 16 22 181 5 366 -6 66 -12 134
-13 151 -2 24 -39 94 -49 94 -1 0 -3 -30 -5 -68 -2 -46 3 -87 17 -132 16 -51
20 -97 22 -213 1 -81 -1 -151 -5 -154 -4 -4 -18 7 -32 25 -14 18 -53 52 -87
76 -34 24 -73 56 -86 70 -19 20 -28 23 -42 15 -19 -10 -84 -97 -128 -171 -13
-22 -27 -36 -32 -31 -9 9 -10 191 -2 458 6 199 7 342 2 455 -2 41 0 87 4 103
11 41 -19 35 -33 -7z"/>
<path d="M0 2566 c0 -379 2 -437 14 -427 11 10 24 9 58 -2 32 -11 71 -14 153
-10 93 4 117 9 155 30 64 36 89 62 113 113 18 39 20 60 17 150 -2 58 -4 161
-4 230 l-1 126 -39 -14 c-30 -10 -51 -11 -88 -2 -27 5 -69 10 -94 10 -47 0
-75 11 -146 59 -45 30 -75 66 -114 135 l-24 41 0 -439z"/>
<path d="M1715 2868 c-27 -5 -88 -6 -134 -3 l-84 6 7 -83 c13 -169 54 -282
119 -329 22 -16 43 -29 46 -29 3 1 23 23 44 50 45 58 106 103 161 119 54 14
109 -11 189 -87 34 -33 81 -76 105 -97 l43 -38 17 23 c9 13 31 53 47 90 28 61
32 66 53 59 22 -8 22 -9 -23 -100 -26 -50 -44 -97 -41 -105 3 -8 17 -19 30
-26 22 -9 30 -7 63 17 76 56 116 102 153 175 21 41 52 102 69 135 17 33 36 86
41 118 5 33 12 67 15 77 8 26 -24 28 -350 19 -230 -6 -310 -4 -385 7 -105 15
-114 16 -185 2z"/>
<path d="M3323 2867 c-21 -5 -83 -6 -138 -4 -56 3 -119 3 -141 0 -40 -5 -41
-7 -53 -55 -16 -72 -14 -101 16 -218 27 -104 28 -106 93 -173 57 -58 76 -71
131 -87 35 -11 70 -20 76 -20 7 0 22 19 34 43 12 23 37 60 55 83 19 22 37 56
40 75 7 33 30 69 45 69 19 0 -2 -85 -44 -173 -33 -69 -42 -97 -31 -97 17 0
141 48 174 69 67 40 114 88 155 159 25 43 58 92 74 110 17 19 37 59 46 90 9
31 25 73 36 94 10 20 19 39 19 41 0 8 -549 2 -587 -6z"/>
<path d="M3927 2803 c-9 -21 -19 -49 -23 -63 -4 -14 -27 -67 -53 -119 -46 -94
-68 -121 -190 -229 -45 -39 -45 -40 -28 -66 10 -14 21 -26 26 -26 8 0 137 140
188 205 19 24 40 70 53 115 25 90 51 212 46 217 -1 2 -10 -14 -19 -34z"/>
<path d="M2780 2651 c-15 -81 -40 -139 -84 -201 -18 -26 -37 -56 -40 -68 -12
-37 -89 -106 -159 -141 -37 -18 -67 -37 -67 -42 0 -18 71 -77 158 -132 l92
-58 70 56 c91 73 113 72 153 -3 28 -51 28 -54 11 -73 -9 -10 -21 -19 -25 -19
-5 0 -16 25 -24 55 l-16 55 -59 -45 c-33 -25 -62 -49 -65 -54 -8 -14 86 -92
104 -87 9 3 43 8 76 11 33 3 79 8 103 11 50 6 196 75 261 122 24 18 53 32 65
32 12 0 37 10 56 22 l35 22 -50 12 c-27 7 -60 13 -73 13 -36 2 -104 40 -146
84 l-39 41 -16 -32 c-10 -22 -22 -32 -38 -32 -27 0 -29 10 -7 51 15 30 13 41
-16 69 -56 56 -177 277 -194 357 -5 21 -14 32 -30 35 -21 4 -24 -1 -36 -61z"/>
<path d="M1839 2508 c-95 -47 -101 -53 -129 -126 l-20 -53 27 -24 c16 -13 31
-25 34 -25 4 0 18 17 32 38 14 21 42 54 62 73 73 66 91 84 114 114 21 28 21
30 4 36 -30 12 -38 10 -124 -33z"/>
<path d="M1968 2433 c-25 -27 -63 -73 -85 -103 -22 -30 -50 -64 -62 -74 -16
-15 -18 -22 -10 -33 6 -7 17 -13 24 -13 14 0 69 53 142 136 29 32 60 67 69 76
17 16 17 18 -1 38 -10 11 -21 20 -24 20 -4 0 -27 -21 -53 -47z"/>
<path d="M3009 2435 c18 -35 79 -100 86 -93 4 4 -16 31 -45 60 -28 29 -47 44
-41 33z"/>
<path d="M2073 2379 l-21 -22 58 -41 c113 -80 266 -211 314 -269 37 -44 164
-142 223 -172 8 -4 -24 -55 -34 -55 -6 0 -54 41 -105 91 -51 49 -129 114 -174
144 -46 31 -93 72 -109 95 -16 23 -42 51 -59 62 -17 12 -55 42 -84 66 l-54 45
-47 -51 -47 -51 36 -20 c74 -42 174 -122 276 -220 63 -60 112 -100 120 -97 8
3 14 0 14 -6 0 -6 3 -9 6 -5 3 3 38 -22 77 -55 40 -33 102 -80 140 -104 70
-46 75 -52 55 -72 -9 -9 -8 -12 7 -13 17 0 17 -2 -4 -10 -20 -8 -31 -4 -67 27
-24 19 -44 39 -44 44 0 5 -12 16 -27 24 -16 8 -49 33 -75 55 -26 23 -49 37
-52 32 -4 -5 -27 12 -52 39 -25 27 -71 64 -103 81 -73 41 -133 91 -162 135
-13 19 -48 48 -78 65 -29 17 -64 41 -77 54 -23 23 -23 23 -30 3 -7 -25 22 -57
131 -143 44 -35 104 -88 133 -118 31 -33 59 -54 67 -51 8 4 40 -22 77 -61 67
-71 118 -108 236 -170 41 -21 86 -54 100 -72 33 -41 150 -138 178 -147 16 -5
32 5 72 48 29 30 52 59 52 64 0 5 20 39 44 74 l44 64 -35 19 c-19 11 -56 43
-82 71 -25 28 -61 59 -79 68 -18 10 -50 32 -70 50 -20 19 -77 59 -127 90 -49
31 -121 87 -160 124 -38 37 -99 87 -135 109 -36 23 -100 78 -143 123 -42 44
-83 80 -90 80 -7 0 -22 -10 -34 -21z"/>
<path d="M3521 2288 c-38 -19 -70 -28 -103 -28 l-48 0 0 -37 c0 -51 8 -60 57
-71 45 -10 70 2 157 74 32 27 36 35 27 51 -20 38 -34 40 -90 11z"/>
<path d="M3140 2301 c0 -12 71 -57 136 -86 l56 -25 -6 23 c-3 12 -6 30 -6 40
0 11 -8 17 -24 17 -13 0 -53 9 -88 20 -74 23 -68 22 -68 11z"/>
<path d="M1720 2170 c0 -10 80 -70 166 -125 26 -16 61 -39 78 -50 l31 -20 -22
28 c-12 16 -44 45 -70 65 -26 20 -52 42 -57 50 -4 8 -33 25 -62 38 -62 27 -64
28 -64 14z"/>
<path d="M0 1060 l0 -1060 1648 1 c906 1 1622 5 1592 9 -133 17 -326 156 -376
270 -16 37 -18 37 -86 44 -37 3 -87 3 -109 0 -37 -6 -43 -12 -69 -64 -55 -108
-174 -189 -333 -226 -64 -15 -85 -16 -125 -6 -26 6 -78 17 -117 23 -38 6 -82
18 -96 25 -39 20 -112 105 -146 171 -17 32 -40 76 -51 98 -12 22 -23 51 -25
65 -2 14 -19 41 -38 61 -59 61 -130 274 -116 346 3 16 -3 49 -15 78 -13 33
-21 80 -23 140 l-3 90 -49 6 c-71 8 -231 57 -277 84 -23 13 -66 31 -98 40 -76
21 -115 52 -278 214 -117 117 -140 145 -146 178 -3 21 -22 63 -41 93 -18 30
-43 84 -54 120 l-19 65 -92 -9 c-76 -8 -101 -7 -152 8 -34 9 -77 21 -96 25
-68 16 -108 43 -155 107 -26 35 -48 64 -51 64 -2 0 -4 -477 -4 -1060z"/>
<path d="M4165 2068 c-63 -8 -90 -24 -76 -47 6 -10 13 -10 28 -3 41 22 121 25
178 7 30 -9 57 -21 61 -26 8 -14 40 -11 54 6 35 42 -113 81 -245 63z"/>
<path d="M3829 2034 c-42 -12 -68 -38 -54 -52 2 -3 24 3 48 12 68 26 110 23
164 -10 48 -30 139 -147 128 -165 -4 -5 3 -9 14 -9 26 0 26 6 0 77 -30 81 -69
119 -147 143 -74 23 -91 24 -153 4z"/>
<path d="M1750 1974 c-16 -36 -44 -84 -62 -107 -18 -22 -38 -61 -45 -86 -6
-26 -20 -73 -31 -106 -48 -141 -52 -169 -58 -370 -8 -253 -9 -239 12 -307 l17
-58 51 -2 c28 0 65 -2 81 -4 98 -10 239 -1 259 15 7 6 37 18 67 27 29 9 90 35
135 59 109 58 154 64 252 35 81 -24 137 -57 186 -109 l30 -31 141 0 c172 0
147 -18 277 197 11 18 32 67 47 110 16 43 32 86 36 95 6 16 1 17 -66 13 -177
-13 -289 -12 -289 2 0 7 -21 26 -47 42 l-48 30 -10 -62 c-6 -34 -20 -80 -31
-102 -21 -41 -98 -101 -143 -112 -14 -3 -29 -10 -32 -15 -10 -15 -256 -15
-329 1 -87 18 -197 73 -276 139 -65 53 -75 74 -38 80 13 2 30 -12 54 -43 38
-51 89 -79 173 -94 32 -6 84 -21 117 -35 55 -22 70 -23 165 -18 58 2 108 8
110 12 2 3 -7 22 -20 41 -14 19 -37 85 -55 154 -37 145 -45 167 -82 227 -27
44 -32 47 -98 62 -38 8 -92 27 -120 41 -44 22 -49 28 -40 45 10 18 11 18 52
-4 53 -29 180 -59 231 -54 l37 3 -76 55 c-76 56 -124 99 -124 112 0 19 -114
82 -151 84 -39 2 -96 26 -182 76 l-47 27 -30 -65z"/>
<path d="M3396 2033 c-17 -3 -58 -25 -93 -49 -72 -52 -82 -79 -64 -164 16 -73
14 -90 -8 -90 -25 0 -32 21 -37 110 -3 41 -7 76 -9 78 -9 9 -269 -61 -287 -77
-4 -3 41 -40 101 -81 100 -69 109 -77 120 -120 7 -25 24 -83 38 -130 13 -47
26 -89 27 -95 8 -31 76 129 76 179 0 27 23 101 46 149 15 31 16 40 5 46 -14 9
7 21 44 26 11 2 61 8 110 15 50 7 116 10 148 7 31 -3 57 -3 57 -1 0 18 -37 68
-87 116 -54 53 -116 90 -145 87 -7 -1 -26 -4 -42 -6z"/>
<path d="M3673 1910 l41 -80 68 0 c37 0 68 4 68 9 0 14 -99 100 -138 120 -83
42 -84 40 -39 -49z"/>
<path d="M4370 1884 c-25 -26 -60 -58 -77 -72 -18 -13 -33 -28 -33 -32 0 -11
87 -100 98 -100 6 0 29 21 51 48 35 40 41 54 41 93 0 47 -16 109 -29 109 -3 0
-26 -21 -51 -46z"/>
<path d="M3570 1785 c-68 -17 -112 -18 -161 -4 -55 17 -65 4 -72 -87 -5 -64
-14 -93 -60 -192 -31 -64 -62 -142 -71 -172 -8 -30 -34 -86 -57 -125 -22 -38
-45 -81 -50 -94 -18 -45 -158 -248 -183 -265 -14 -9 -26 -21 -26 -26 0 -20 86
-128 105 -132 11 -2 85 0 165 5 106 7 175 5 255 -4 61 -7 148 -14 195 -16 47
-1 108 -5 135 -8 28 -3 57 -1 65 4 12 8 10 13 -13 31 -44 35 -82 131 -92 238
-8 77 -1 98 67 189 65 89 115 125 193 138 22 4 59 14 82 22 41 15 106 14 144
-1 12 -5 18 0 23 19 4 15 19 45 34 68 24 37 78 215 68 224 -2 3 -21 -3 -42
-12 -45 -19 -144 -17 -144 2 0 7 11 13 24 13 31 0 156 39 156 48 0 13 -96 103
-102 96 -4 -3 -17 2 -31 11 -23 14 -25 14 -31 0 -3 -9 -6 -25 -6 -34 0 -27
-53 -95 -93 -120 -40 -25 -214 -45 -254 -30 -41 15 -16 34 50 37 74 3 115 15
183 54 60 33 79 53 88 90 6 26 5 26 -52 30 -41 3 -66 0 -88 -12 -26 -15 -33
-15 -49 -4 -10 7 -21 11 -25 9 -3 -2 -42 2 -86 10 -108 19 -114 19 -114 -7 -1
-32 -50 -118 -80 -140 -14 -10 -51 -23 -83 -29 -51 -11 -59 -10 -77 6 -25 22
-19 31 8 14 31 -20 71 3 140 82 34 39 62 75 62 80 0 12 -34 10 -100 -6z"/>
<path d="M2335 1624 c4 -10 20 -55 35 -99 15 -44 39 -103 53 -130 14 -28 31
-73 37 -99 6 -26 19 -64 28 -83 l18 -34 67 70 c63 67 87 113 87 167 0 35 -42
85 -115 136 -38 27 -80 56 -91 64 -12 8 -45 17 -74 21 -50 6 -53 5 -45 -13z"/>
<path d="M3052 1617 c-5 -6 -19 -31 -31 -54 -11 -23 -41 -71 -66 -106 -25 -36
-45 -67 -45 -70 0 -6 147 2 169 9 11 4 11 7 -2 22 -14 16 -14 19 2 41 11 15
23 21 31 16 9 -6 10 -3 2 11 -5 11 -15 45 -23 77 -13 62 -21 74 -37 54z"/>
<path d="M4262 1245 c-13 -29 -38 -32 -71 -9 -17 12 -39 15 -87 12 -54 -3 -82
-13 -170 -58 -147 -75 -217 -158 -185 -219 6 -11 8 -26 5 -35 -9 -25 36 -145
68 -182 26 -30 36 -34 77 -34 60 0 184 34 238 66 50 29 124 121 159 199 31 66
35 178 10 237 -20 48 -31 53 -44 23z"/>
<path d="M1594 889 c-2 -4 1 -47 8 -94 l12 -85 68 0 c64 0 68 1 83 29 8 16 28
39 45 51 16 12 30 29 30 39 0 9 5 22 10 27 16 16 -53 33 -158 37 -51 3 -95 1
-98 -4z"/>
<path d="M2682 872 c6 -6 21 -40 33 -75 l23 -62 72 -8 c40 -4 75 -6 77 -3 9 9
-38 76 -53 76 -18 0 -18 4 2 42 21 42 9 48 -88 45 -60 -2 -74 -5 -66 -15z"/>
</g>
</svg>
